# xmcd CD database file
#
# Track frame offsets:
#	150
#	21998
#	38991
#	57182
#	73348
#	94503
#	120301
#	140224
#	170965
#	187288
#	207092
#	233697
#	260439
#	284391
#	305443
#
# Disc length: 4442 seconds
#
# Revision: 1
# Processed by: cddbd v1.5.2PL0 Copyright (c) Steve Scherf et al.
# Submitted via: CDex 1.51
#
DISCID=e611580f
DTITLE=Extreme - The Collection
DYEAR=2002
DGENRE=Rock
TTITLE0=Mutha(Don't Wanna Go To School today)
TTITLE1=Little Girls
TTITLE2=Kid Ego
TTITLE3=Wind Me Up
TTITLE4=When I'm President
TTITLE5=More Than Words
TTITLE6=It('s A Monster)
TTITLE7=Decadence Dance
TTITLE8=Hole Hearted
TTITLE9=Get The Funk Out
TTITLE10=Song For Love
TTITLE11=Cupid's Dead
TTITLE12=Warheads
TTITLE13=Hip Today
TTITLE14=There Is No God
EXTD=YEAR: 2002
EXTT0=
EXTT1=
EXTT2=
EXTT3=
EXTT4=
EXTT5=
EXTT6=
EXTT7=
EXTT8=
EXTT9=
EXTT10=
EXTT11=
EXTT12=
EXTT13=
EXTT14=
PLAYORDER=
